<svg xmlns="http://www.w3.org/2000/svg" viewBox="0 0 512 512" role="img" aria-labelledby="title desc">
  <title id="title">MQG Trivia Icon</title>
  <desc id="desc">App icon for the MQG trivia game.</desc>
  <defs>
    <linearGradient id="bg" x1="0" y1="0" x2="1" y2="1">
      <stop offset="0%" stop-color="#0C4C8A" />
      <stop offset="100%" stop-color="#052D57" />
    </linearGradient>
  </defs>
  <rect x="0" y="0" width="512" height="512" rx="110" fill="url(#bg)" />
  <circle cx="256" cy="180" r="88" fill="#F2F7FF" opacity="0.18" />
  <path
    d="M160 188c0-53 43-96 96-96s96 43 96 96c0 38-22 71-54 87v29c0 10-8 18-18 18h-48c-10 0-18-8-18-18v-29c-32-16-54-49-54-87z"
    fill="#F6FAFF"
  />
  <rect x="212" y="326" width="88" height="28" rx="10" fill="#F6FAFF" />
  <rect x="208" y="362" width="96" height="26" rx="10" fill="#E8F1FF" />
  <text
    x="256"
    y="450"
    text-anchor="middle"
    font-family="Arial, Helvetica, sans-serif"
    font-size="54"
    font-weight="700"
    fill="#F6FAFF"
  >
    MQG
  </text>
</svg>
